<svg width="300" height="300" viewBox="0 0 300 300" fill="none" xmlns="http://www.w3.org/2000/svg">
<rect width="300" height="300" rx="150" fill="white"/>
<path d="M102.36 225V86.76H156.504C171.672 86.76 183.384 89.64 191.448 95.208C199.512 100.968 203.544 110.184 203.544 123.048C203.544 131.688 201.816 138.6 198.36 143.784C194.712 148.968 188.952 153.192 181.08 156.84C185.112 158.184 188.376 160.296 190.68 162.984C192.984 165.672 194.712 168.744 195.864 172.2C197.016 175.656 197.784 179.304 198.168 183.144L198.744 194.28C198.936 199.464 199.128 203.88 199.512 207.336C199.704 210.792 200.088 213.672 200.664 215.784C201.048 217.896 201.624 219.624 202.2 220.776C202.776 222.12 203.544 223.08 204.504 223.656V225H190.104C188.76 222.696 187.8 219.432 187.224 215.4C186.648 211.368 186.072 206.952 185.88 202.536C185.496 198.12 185.304 193.704 185.112 189.48C184.92 185.256 184.536 181.8 183.96 179.112C183.192 175.464 182.04 172.392 180.312 170.088C178.584 167.976 176.472 166.248 173.976 165.096C171.48 163.944 168.792 163.176 165.912 162.792C162.84 162.408 159.768 162.216 156.504 162.216H115.416V225H102.36ZM156.12 151.08C160.92 151.08 165.528 150.504 169.752 149.544C173.784 148.584 177.432 146.856 180.504 144.552C183.576 142.44 186.072 139.56 187.8 136.104C189.528 132.648 190.488 128.424 190.488 123.624C190.488 118.44 189.528 114.216 187.8 110.952C185.88 107.688 183.384 105 180.312 103.08C177.048 101.16 173.592 99.816 169.56 99.048C165.528 98.28 161.304 97.896 156.888 97.896H115.416V151.08H156.12Z" fill="black"/>
</svg>
